<svg xmlns="http://www.w3.org/2000/svg" version="1.1" xmlns:xlink="http://www.w3.org/1999/xlink" viewBox="0 0 200 200" width="200" height="200"><metadata><rdf:RDF xmlns:rdf="http://www.w3.org/1999/02/22-rdf-syntax-ns#" xmlns:dc="http://purl.org/dc/elements/1.1/"><rdf:Description><dc:creator>RealFaviconGenerator</dc:creator><dc:source>https://realfavicongenerator.net</dc:source></rdf:Description></rdf:RDF></metadata><rect width="200" height="200" fill="url('#gradient')"></rect><defs><linearGradient id="gradient" gradientTransform="rotate(45 0.5 0.5)"><stop offset="0%" stop-color="#983434"></stop><stop offset="100%" stop-color="#4f0716"></stop></linearGradient></defs><g><g fill="#f3f4c0" transform="matrix(5.208250918338513,0,0,5.208250918338513,4.424100350680149,137.03003959124894)" stroke="#c8512e" stroke-width="0"><path d="M8.87 0L6.36-5.02L4.50-5.02L4.50 0L1.07 0L1.07-14.22L6.67-14.22Q9.20-14.22 10.63-13.10Q12.05-11.97 12.05-9.92L12.05-9.92Q12.05-8.44 11.45-7.46Q10.85-6.48 9.57-5.88L9.57-5.88L12.54-0.15L12.54 0L8.87 0ZM4.50-11.57L4.50-7.67L6.67-7.67Q7.65-7.67 8.14-8.18Q8.63-8.69 8.63-9.61Q8.63-10.53 8.13-11.05Q7.64-11.57 6.67-11.57L6.67-11.57L4.50-11.57ZM24.79-14.22L24.79-11.57L20.53-11.57L20.53 0L17.10 0L17.10-11.57L12.91-11.57L12.91-14.22L24.79-14.22ZM29.67-14.22L29.67-2.64L35.63-2.64L35.63 0L26.24 0L26.24-14.22L29.67-14.22Z"></path></g></g></svg>